<?xml version="1.0" encoding="utf-8"?>
<!-- Generator: Adobe Illustrator 22.1.0, SVG Export Plug-In . SVG Version: 6.00 Build 0)  -->
<svg version="1.1" id="Capa_1" xmlns="http://www.w3.org/2000/svg" xmlns:xlink="http://www.w3.org/1999/xlink" x="0px" y="0px"
	 viewBox="0 0 354 331" style="enable-background:new 0 0 354 331;" xml:space="preserve">
<style type="text/css">
	.st0{fill:#FFFFFF;}
</style>
<g>
	<path class="st0" d="M65.4,77.4c-3.7,1-12.3,3.2-17.5,11.2c-1.3,2-3.4,9.2-3.4,12.6c0,0.5,0.3,0.7,0.6,0.7
		c9.5-0.8,12.6-4.5,15.2-7.9C65.5,87.2,65.5,80.2,65.4,77.4z"/>
	<path class="st0" d="M59.3,105c-3.8,0.8-12.5,2.3-18.2,10c-1.4,1.9-4.1,9-4.3,12.3c0,0.5,0.2,0.7,0.5,0.7
		c9.5-0.1,12.9-3.6,15.8-6.8C58.7,114.9,59.2,107.8,59.3,105z"/>
	<path class="st0" d="M32.7,85.9c-2.1,3.2-7.2,10.5-5.7,20c0.4,2.4,3.5,9.2,5.8,11.7c0.3,0.3,0.7,0.4,0.9,0.1
		c6.6-6.8,6.5-11.7,6.3-16C39.3,93.2,34.7,87.9,32.7,85.9z"/>
	<path class="st0" d="M44.5,135.9c-3.5,1.7-11.5,5.5-15,14.3c-0.9,2.2-1.6,9.7-0.9,13c0.1,0.4,0.4,0.6,0.7,0.5
		c9.1-2.6,11.5-6.8,13.5-10.7C46.5,145.6,45.2,138.7,44.5,135.9z"/>
	<path class="st0" d="M19.1,116c-1.6,3.5-5.5,11.4-2.7,20.6c0.7,2.3,4.8,8.6,7.4,10.8c0.3,0.3,0.7,0.3,0.9,0
		c5.5-7.7,4.7-12.5,3.8-16.7C26.7,122.3,21.3,117.8,19.1,116z"/>
	<path class="st0" d="M46.5,162.8c-3.1,2.3-10.3,7.4-12.2,16.8c-0.5,2.3,0.1,9.8,1.4,13c0.2,0.4,0.5,0.6,0.8,0.4
		c8.5-4.2,10.1-8.7,11.3-12.9C50.2,172,47.6,165.4,46.5,162.8z"/>
	<path class="st0" d="M9,149.8c-0.2,3.9-0.8,12.7,5.2,20.1c1.5,1.9,7.7,6.2,10.9,7.2c0.4,0.1,0.7,0,0.8-0.4
		c2.2-9.2-0.3-13.4-2.7-16.9C18.4,152.8,11.7,150.6,9,149.8z"/>
	<path class="st0" d="M54.3,186.1c-2.8,2.7-9.2,8.8-9.8,18.3c-0.2,2.4,1.5,9.7,3.2,12.7c0.2,0.4,0.6,0.5,0.8,0.3
		c7.9-5.3,8.8-10,9.5-14.3C59.3,194.7,55.8,188.5,54.3,186.1z"/>
	<path class="st0" d="M8.1,179.9c1.4,3.6,4.3,11.9,12.8,16.3c2.1,1.1,9.5,2.5,12.9,2.2c0.5,0,0.7-0.3,0.6-0.7
		c-1.7-9.3-5.6-12.1-9.3-14.4C17.9,178.8,10.9,179.5,8.1,179.9z"/>
	<path class="st0" d="M16.7,207.7c1.8,3.4,5.9,11.3,14.8,14.5c2.2,0.8,9.8,1.3,13.1,0.5c0.4-0.1,0.6-0.4,0.5-0.7
		c-2.9-9-7.2-11.3-11.1-13.1C26.3,205.3,19.5,206.9,16.7,207.7z"/>
	<path class="st0" d="M64.7,204.7c-1.7,3.5-5.8,11.3-3.2,20.5c0.7,2.3,4.6,8.7,7.2,10.9c0.3,0.3,0.7,0.3,0.9,0
		c5.7-7.6,5-12.4,4.2-16.7C72.2,211.2,66.9,206.5,64.7,204.7z"/>
	<path class="st0" d="M58.4,275.4"/>
	<path class="st0" d="M55.3,274.7"/>
	<g>
		<g>
			<path class="st0" d="M60.3,281.4C58,279.9,52,275,52,275l6.9-21l-10-4L35,244.4c0,0,4.8,9.6,6.1,12.9c1,2.4,3,9.4,3,9.4
				s-7.3,5.7-9.9,7.2c-2.9,1.7-12,6.2-12,6.2s12.9,4.3,17.5,5.4c4.4,1.1,13.7,3.5,18.1,4.5c6.8,1.6,27.4,5.6,27.4,5.6
				s-9.6-4.7-12.9-6.5C69.5,287.5,63.1,283.4,60.3,281.4z"/>
			<path class="st0" d="M320.4,273.9c-2.6-1.5-9.9-7.2-9.9-7.2s2.1-7,3-9.4c1.3-3.3,6.1-12.9,6.1-12.9l-13.8,5.6l-10,4l6.9,21
				c0,0-6,4.9-8.3,6.5c-2.8,1.9-9.2,6.1-12.2,7.7c-3.3,1.8-12.9,6.5-12.9,6.5s20.6-4,27.4-5.6c4.5-1,13.7-3.3,18.1-4.5
				c4.5-1.2,17.5-5.4,17.5-5.4S323.3,275.6,320.4,273.9z"/>
		</g>
	</g>
	<g>
		<path class="st0" d="M73.1,280.7c-0.6-0.2-1.1-0.3-1.6-0.5l-2.4,5.4c0.5,0.3,1,0.6,1.5,0.8L73.1,280.7z"/>
		<path class="st0" d="M76.1,281.6c-0.5-0.1-1-0.3-1.6-0.5l-2.5,6.1c0.5,0.2,0.9,0.5,1.4,0.7L76.1,281.6z"/>
		<path class="st0" d="M70.1,279.8c-0.5-0.2-1-0.3-1.4-0.4c-0.1,0-0.2-0.1-0.3-0.1l-2.2,4.7c0.5,0.3,1,0.6,1.5,0.9L70.1,279.8z"/>
		<path class="st0" d="M65.2,278.2l-1.9,3.9c0.4,0.3,0.7,0.5,1,0.7c0.1,0.1,0.3,0.2,0.4,0.3l2.2-4.3
			C66.4,278.6,65.8,278.4,65.2,278.2z"/>
		<path class="st0" d="M58.4,278c0.4,0.3,0.8,0.7,1.2,1l1.2-2.3c-0.5-0.2-1-0.3-1.5-0.5L58.4,278z"/>
		<path class="st0" d="M63.8,277.7c-0.5-0.2-1-0.3-1.6-0.5l-1.4,2.8c0.4,0.4,0.8,0.7,1.2,1L63.8,277.7z"/>
		<path class="st0" d="M88.1,284.4c-0.5-0.1-1.1-0.2-1.6-0.3l-2.3,8.6c0.5,0.2,1.1,0.4,1.6,0.6L88.1,284.4z"/>
		<path class="st0" d="M57.9,275.7c-1.8-0.6-3.2-1.1-3.2-1.1s1.1,1,2.5,2.2L57.9,275.7z"/>
		<path class="st0" d="M92.5,285.3l-1.6,9.8c0.9,0.3,1.5,0.5,1.5,0.5l1.5-10C93.9,285.6,93.3,285.5,92.5,285.3z"/>
		<path class="st0" d="M91.1,285c-0.5-0.1-1-0.2-1.5-0.3l-2,9.2c0.6,0.2,1.2,0.4,1.7,0.6L91.1,285z"/>
		<path class="st0" d="M85.1,283.8c-0.5-0.1-1-0.2-1.4-0.3l-2.6,8c0.4,0.2,0.9,0.4,1.5,0.6L85.1,283.8z"/>
		<path class="st0" d="M79.2,282.4c-0.5-0.1-1.1-0.3-1.7-0.5l-2.6,6.7c0.5,0.2,0.9,0.5,1.4,0.7L79.2,282.4z"/>
		<path class="st0" d="M82.3,283.2c-0.2,0-0.4-0.1-0.6-0.1c-0.3-0.1-0.7-0.2-1-0.3l-2.8,7.2c0.6,0.3,1.2,0.5,1.7,0.8L82.3,283.2z"/>
	</g>
	<g>
		<path class="st0" d="M280.5,281.5c0.6-0.2,1.1-0.3,1.6-0.5l2.4,5.4c-0.5,0.3-1,0.6-1.5,0.8L280.5,281.5z"/>
		<path class="st0" d="M277.5,282.4c0.5-0.1,1-0.3,1.6-0.5l2.5,6.1c-0.5,0.2-0.9,0.5-1.4,0.7L277.5,282.4z"/>
		<path class="st0" d="M283.6,280.6c0.5-0.2,1-0.3,1.4-0.4c0.1,0,0.2-0.1,0.3-0.1l2.2,4.7c-0.5,0.3-1,0.6-1.5,0.9L283.6,280.6z"/>
		<path class="st0" d="M288.4,279l1.9,3.9c-0.4,0.3-0.7,0.5-1,0.7c-0.1,0.1-0.3,0.2-0.4,0.3l-2.2-4.3
			C287.2,279.4,287.8,279.2,288.4,279z"/>
		<path class="st0" d="M295.2,278.8c-0.4,0.3-0.8,0.7-1.2,1l-1.2-2.3c0.5-0.2,1-0.3,1.5-0.5L295.2,278.8z"/>
		<path class="st0" d="M289.9,278.6c0.5-0.2,1-0.3,1.6-0.5l1.4,2.8c-0.4,0.4-0.8,0.7-1.2,1L289.9,278.6z"/>
		<path class="st0" d="M265.5,285.3c0.5-0.1,1.1-0.2,1.6-0.3l2.3,8.6c-0.5,0.2-1.1,0.4-1.6,0.6L265.5,285.3z"/>
		<path class="st0" d="M295.8,276.6c1.8-0.6,3.2-1.1,3.2-1.1s-1.1,1-2.5,2.2L295.8,276.6z"/>
		<path class="st0" d="M261.2,286.1l1.6,9.8c-0.9,0.3-1.5,0.5-1.5,0.5l-1.5-10C259.8,286.4,260.3,286.3,261.2,286.1z"/>
		<path class="st0" d="M262.6,285.9c0.5-0.1,1-0.2,1.5-0.3l2,9.2c-0.6,0.2-1.2,0.4-1.7,0.6L262.6,285.9z"/>
		<path class="st0" d="M268.5,284.7c0.5-0.1,1-0.2,1.4-0.3l2.6,8c-0.4,0.2-0.9,0.4-1.5,0.6L268.5,284.7z"/>
		<path class="st0" d="M274.4,283.3c0.5-0.1,1.1-0.3,1.7-0.5l2.6,6.7c-0.5,0.2-0.9,0.5-1.4,0.7L274.4,283.3z"/>
		<path class="st0" d="M271.4,284.1c0.2,0,0.4-0.1,0.6-0.1c0.3-0.1,0.7-0.2,1-0.3l2.8,7.2c-0.6,0.3-1.2,0.5-1.7,0.8L271.4,284.1z"/>
	</g>
	<path class="st0" d="M120.6,252.3c1.9,0.3,5.4,0.8,8.7,1.3c-1.7-2.7-3.8-4.2-5.8-5.6c-7.1-4.7-14.1-4.3-16.9-4
		c0.5,1.4,1.2,3.6,2.4,6C113.4,251,117.6,251.8,120.6,252.3z"/>
	<path class="st0" d="M89.8,245.5c2.1,0.6,4.7,1.3,7.6,2c-0.2-3.5-1.5-6-2.7-8.2c-4.2-7.4-10.6-10.1-13.3-11.2
		c-0.4,2.9-1.3,8.7,0.7,14.8C85.2,244,88,245,89.8,245.5z"/>
	<path class="st0" d="M64.5,237.5c-3.5-3.1-6.7-3.8-9.8-4.3c-8.4-1.3-14.6,2.1-17,3.5c2.7,2.8,8.7,9.3,18.2,10
		c1.1,0.1,3.4-0.2,5.8-0.8L64.5,237.5z"/>
	<path class="st0" d="M290,77.4c3.7,1,12.3,3.2,17.5,11.2c1.3,2,3.4,9.2,3.4,12.6c0,0.5-0.3,0.7-0.6,0.7c-9.5-0.8-12.6-4.5-15.2-7.9
		C289.9,87.2,289.9,80.2,290,77.4z"/>
	<path class="st0" d="M296.1,105c3.8,0.8,12.5,2.3,18.2,10c1.4,1.9,4.1,9,4.3,12.3c0,0.5-0.2,0.7-0.5,0.7
		c-9.5-0.1-12.9-3.6-15.8-6.8C296.7,114.9,296.2,107.8,296.1,105z"/>
	<path class="st0" d="M322.7,85.9c2.1,3.2,7.2,10.5,5.7,20c-0.4,2.4-3.5,9.2-5.8,11.7c-0.3,0.3-0.7,0.4-0.9,0.1
		c-6.6-6.8-6.5-11.7-6.3-16C316.1,93.2,320.7,87.9,322.7,85.9z"/>
	<path class="st0" d="M310.9,135.9c3.5,1.7,11.5,5.5,15,14.3c0.9,2.2,1.6,9.7,0.9,13c-0.1,0.4-0.4,0.6-0.7,0.5
		c-9.1-2.6-11.5-6.8-13.5-10.7C308.9,145.6,310.2,138.7,310.9,135.9z"/>
	<path class="st0" d="M336.3,116c1.6,3.5,5.5,11.4,2.7,20.6c-0.7,2.3-4.8,8.6-7.4,10.8c-0.3,0.3-0.7,0.3-0.9,0
		c-5.5-7.7-4.7-12.5-3.8-16.7C328.7,122.3,334,117.8,336.3,116z"/>
	<path class="st0" d="M308.9,162.8c3.1,2.3,10.3,7.4,12.2,16.8c0.5,2.3-0.1,9.8-1.4,13c-0.2,0.4-0.5,0.6-0.8,0.4
		c-8.5-4.2-10.1-8.7-11.3-12.9C305.2,172,307.8,165.4,308.9,162.8z"/>
	<path class="st0" d="M346.4,149.8c0.2,3.9,0.8,12.7-5.2,20.1c-1.5,1.9-7.7,6.2-10.9,7.2c-0.4,0.1-0.7,0-0.8-0.4
		c-2.2-9.2,0.3-13.4,2.7-16.9C337,152.8,343.7,150.6,346.4,149.8z"/>
	<path class="st0" d="M301.1,186.1c2.8,2.7,9.2,8.8,9.8,18.3c0.2,2.4-1.5,9.7-3.2,12.7c-0.2,0.4-0.6,0.5-0.8,0.3
		c-7.9-5.3-8.8-10-9.5-14.3C296.1,194.7,299.6,188.5,301.1,186.1z"/>
	<path class="st0" d="M347.3,179.9c-1.4,3.6-4.3,11.9-12.8,16.3c-2.1,1.1-9.5,2.5-12.9,2.2c-0.5,0-0.7-0.3-0.6-0.7
		c1.7-9.3,5.6-12.1,9.3-14.4C337.5,178.8,344.5,179.5,347.3,179.9z"/>
	<path class="st0" d="M338.7,207.7c-1.8,3.4-5.9,11.3-14.8,14.5c-2.2,0.8-9.8,1.3-13.1,0.5c-0.4-0.1-0.6-0.4-0.5-0.7
		c2.9-9,7.2-11.3,11.1-13.1C329.1,205.3,335.9,206.9,338.7,207.7z"/>
	<path class="st0" d="M290.7,204.7c1.7,3.5,5.8,11.3,3.2,20.5c-0.7,2.3-4.6,8.7-7.2,10.9c-0.3,0.3-0.7,0.3-0.9,0
		c-5.7-7.6-5-12.4-4.2-16.7C283.2,211.2,288.5,206.5,290.7,204.7z"/>
	<path class="st0" d="M234.8,252.3c-1.9,0.3-5.4,0.8-8.7,1.3c1.7-2.7,3.8-4.2,5.8-5.6c7.1-4.7,14.1-4.3,16.9-4
		c-0.5,1.4-1.2,3.6-2.4,6C242,251,237.8,251.8,234.8,252.3z"/>
	<path class="st0" d="M265.6,245.5c-2.1,0.6-4.7,1.3-7.6,2c0.2-3.5,1.5-6,2.7-8.2c4.2-7.4,10.6-10.1,13.3-11.2
		c0.4,2.9,1.3,8.7-0.7,14.8C270.2,244,267.4,245,265.6,245.5z"/>
	<path class="st0" d="M290.9,237.5c3.5-3.1,6.7-3.8,9.8-4.3c8.4-1.3,14.6,2.1,17,3.5c-2.7,2.8-8.7,9.3-18.2,10
		c-1.1,0.1-3.4-0.2-5.8-0.8L290.9,237.5z"/>
	<polygon class="st0" points="193.6,99.5 193.3,117.7 203.5,117.8 203.2,183.3 151.1,183.4 150.8,117.9 161,117.8 160.8,99.6 
		125.4,99.6 125.4,118.2 136.8,118.2 136.8,181.6 155.7,201.2 198.6,201.1 217.5,181.5 217.5,118.1 228.9,118.1 228.9,99.5 	"/>
	<path class="st0" d="M183.4,90.4l-0.3,36.8l11.1,0.2l-0.3,47.6l-33.5-0.1l-0.1-48.3h12.2l0-36.2h-56.8v36.8h11.5l0.2,59.5
		l22.3,24.6h55.1l22.8-24.4l0.3-59.9l11.2,0.3l0.3-36.9H183.4z M233.8,122.2h-11.3v61.1l-21.1,22.4h-47.9l-21.1-22.4v-61.1h-11.3
		V95.3h44.9l-0.1,26.8l-10.1,0.1v56.3h43.3v-56.3l-10.1-0.1l-0.1-26.8h44.9V122.2z"/>
	<path class="st0" d="M281.6,144.7c0,0-34.8-54.1-7-96.6l-34.7-35.9c0,0-37,16-62.4,15.2c-25.3,0.8-62.4-15.2-62.4-15.2L80.4,48.2
		c27.8,42.5-7,96.6-7,96.6c-36.5,59.3,40,86.8,40,86.8c55.5,18.7,64,35.7,64,35.7s8.5-17,64-35.7
		C241.5,231.6,318.1,204.1,281.6,144.7 M234.4,222.9c-50.3,16.9-58,32.3-58,32.3s-7.7-15.4-58-32.3c0,0-69.3-24.9-36.3-78.6
		c0,0,31.5-55.4,6.4-93.9l28.5-29c0,0,36.5,17.4,59.4,16.7c22.9,0.7,60.7-15.6,60.7-15.6l27.2,27.9c-25.1,38.5,6.3,93.9,6.3,93.9
		C303.7,198,234.4,222.9,234.4,222.9"/>
	<path class="st0" d="M120,28.1c5.2,2.4,34.7,15.7,55.1,15.7c0.5,0,0.9,0,1.3,0c0.5,0,1,0,1.4,0c20.5,0,51.1-12.5,56.3-14.7l23.1,23
		c-23.1,36.9,7.8,91.8,8.2,92.4c8.3,13.5,10.4,26.2,6.4,37.8c-8.3,23.8-40,35.4-40.3,35.5c-39.5,13.3-51.7,25.6-55,29.8
		c-3.2-4.2-15.5-16.5-54.9-29.8c-0.3-0.1-32-11.8-40.4-35.5c-4.1-11.6-1.9-24.3,6.4-37.8c0.3-0.6,31.3-55.4,8.1-92.3L120,28.1
		 M119.7,26.8L94.2,52.2c24,36.7-7.7,91.8-7.7,91.8c-31.6,51.3,34.6,75,34.6,75c48,16.2,55.3,30.8,55.3,30.8s7.3-14.6,55.3-30.8
		c0,0,66.2-23.7,34.6-75c0,0-31.7-55.3-7.7-92l-24.3-24.2c0,0-34.6,15-56.5,15c-0.5,0-0.9,0-1.4,0c-0.4,0-0.9,0-1.3,0
		C153.2,42.7,119.7,26.8,119.7,26.8"/>
	<path class="st0" d="M175.1,269.5"/>
	<g>
		<polygon class="st0" points="112.5,264.4 112.1,266.7 113.5,266.9 114.5,266.3 114.7,265.5 114,264.6 		"/>
		<polygon class="st0" points="229.9,266.7 229.2,266.8 228.5,267.8 229.7,276.7 230.8,277.5 231.4,277.3 232.1,276.4 230.8,267.5 
					"/>
		<polygon class="st0" points="94.5,260.8 92.5,265.8 94.2,266.1 		"/>
		<path class="st0" d="M289.5,238.5c0,0-15.9,6.8-28.2,9.3c-6,1.2-24.9,5.8-40.6,8.1c-15.7,2.3-28.1,2.6-28.1,2.6s-2.6,0.9-5.3,2.9
			c-1.8,1.3-3.4,3.1-4.6,4.5l-0.1,0.1v4.2h-3.4l-1.6,2l-1.7-2h-1.1l-1,1.1v0.5l1,0.9h4.8l3.7,3.6v7.2l-3.5,3.6l-12.9-0.2l0.2-5.8h8
			l0.9-0.9v-0.6l-0.8-0.9H170l-3.5-3.9l0.2-7.1l3.7-3.5l0.2,0c-1.1-1.2-2.2-2.3-2.9-2.8c-2.7-2-5.3-2.9-5.3-2.9s-12.5-0.3-28.1-2.6
			c-15.7-2.3-34.6-6.9-40.6-8.1c-12.3-2.5-28.2-9.3-28.2-9.3l-11.1,34.7c0,0,21.4,8.2,36.4,10.7c7.3,1.2,21.3,4.5,41.5,7
			c22.6,2.8,44.2,2.6,44.2,2.6h1.9c0,0,21.6,0.2,44.2-2.6c20.2-2.5,34.2-5.8,41.5-7c15.1-2.5,36.4-10.7,36.4-10.7L289.5,238.5z
			 M76.2,264.3l-8.2-2.3l0.8-2.8l2.5-0.7l6.1,1.8L76.2,264.3z M100.8,279.2l-7.2-1.6l0.4-5.3l-3.4-0.8l-2.1,5l-7.2-1.9l9.7-21
			l10.1,2.3L100.8,279.2z M121.7,267.8l-3,3l2,3.7l-0.8,4.7l0.8,3.5l-6.4-0.9l-1.5-3.7l0.8-4l-0.6-1.1l-1.6-0.3l-1.6,8.2l-7.1-1.3
			l4.4-22.5l12.5,2.4l2.8,4L121.7,267.8z M134.7,267.8l-1.9,16.7l-7.4-1l2.4-16.5l-4.7-0.7l0.9-5.9l15.9,2l-0.6,6L134.7,267.8z
			 M148.8,271.5l4.9,0.4l3.3,3.8l-0.5,7.2l-3.9,3.3l-12.8-1l0.6-6l8.1,0.7l1-1v-0.5l-0.8-1l-5.1-0.4l-3.2-3.9l0.6-7.2l3.9-3.2l12,1
			l-0.4,5.9l-7.7-0.5l-1,1v0.6L148.8,271.5z M188.8,286.8l-3.7-3.3l-0.3-15.7l3.4-3.7l12.1-0.5l0.3,5.9l-7.9,0.5l-0.8,1l0.5,9
			l0.8,0.7l8.1-0.5l0.3,6.1L188.8,286.8z M214.3,285.4l-0.7-8.4l-3.6,0.4l0.6,8.4l-7.3,0.5l-1.4-22.6l6.8-0.6l0.8,8.4l3.4-0.3
			l-0.6-8.4l6.8-0.7l2.5,22.6L214.3,285.4z M236.8,282.6l-9.9,1.3l-4-2.9l-1.7-15.7l3-4l9.3-1.2l3.8,2.8l2.4,15.7L236.8,282.6z
			 M255.3,279.5l-9.6,1.8l-4.2-2.9L239,263l2.8-4.1l9.2-1.7l4,2.7l3.1,15.4L255.3,279.5z M260.7,278.3l-4.8-22.2l6.8-1.5l3.7,16.2
			l8.3-1.9l1.5,5.8L260.7,278.3z M276.9,259.6l6.2-1.6l2.5,0.8l0.7,2.8l-8.3,2L276.9,259.6z"/>
		<polygon class="st0" points="247.8,263.9 247.1,263.9 246.4,265 248,273.8 249.1,274.5 249.8,274.4 250.4,273.4 248.8,264.6 		"/>
	</g>
	<polygon class="st0" points="119.5,309.4 118.9,312.6 127.4,314.1 128,311 	"/>
	<polygon class="st0" points="141,312.8 138,312.5 137.7,312 137.7,311.6 138.3,311.1 142.9,311.6 143.3,308.2 136.2,307.2 
		133.9,309 133.3,313.2 135,315.6 137.9,316 138.3,316.5 138.3,317 137.7,317.4 133.1,316.7 132.6,320.3 140,321.3 142.2,319.5 
		142.8,315.1 	"/>
	<polygon class="st0" points="144.6,308.4 143,321.7 147.2,322.1 148.6,308.7 	"/>
	<polygon class="st0" points="157.5,309.6 156.9,316.1 153.7,309.3 149.5,308.9 148.3,322.1 152.5,322.4 153.1,315.9 156.5,322.8 
		160.7,323.1 161.5,309.8 	"/>
	<polygon class="st0" points="166.7,319.9 166.2,319.4 166.3,314.3 166.8,313.7 171.5,313.8 171.6,310.3 164.5,310 162.3,312 
		161.8,321.2 163.8,323.4 171.2,323.6 171.3,320 	"/>
	<polygon class="st0" points="172.5,310.3 172.3,323.6 181.4,323.7 181.4,320.2 176.6,320.1 176.6,318.5 181.4,318.4 181.4,314.9 
		176.6,314.9 176.6,313.9 181.3,313.8 181.3,310.3 	"/>
	<polygon class="st0" points="186.7,310.3 187.1,323.6 191.4,323.5 190.9,310 	"/>
	<polygon class="st0" points="228.3,311 228.9,314.2 237.5,312.5 236.8,309.3 	"/>
	<path class="st0" d="M201.4,311.4l-2.2-1.9l-5.3,0.3l-1.9,2.2l0.1,4.3l2.1,1.9h1.8l1.7-0.7v1.3l-0.4,0.6l-4.5,0.2l0.1,3.6l7.3-0.4
		l2-2.3L201.4,311.4z M197.4,314.2l-0.4,0.5h-0.5l-0.5-0.5v-0.4l0.5-0.5l0.4,0l0.5,0.5V314.2z"/>
	<path class="st0" d="M211.8,310.5l-2.3-1.9l-5.3,0.6l-1.9,2.3l0.4,4.2l2.2,2l1.6-0.1l1.8-0.8l0.2,1.4l-0.5,0.6l-4.6,0.4l0.3,3.5
		l7.4-0.7l1.8-2.2L211.8,310.5z M207.6,313.7l-0.4,0.1l-0.6-0.4l0-0.4l0.4-0.5l0.4-0.1l0.5,0.4l0.1,0.4L207.6,313.7z"/>
	<path class="st0" d="M223.3,317.3l-0.5-3.6l-0.5,0l-1.1-6.6l-6.1,0.9l-2,8.5l0.3,2l5.3-0.7l0.3,3.1l4.2-0.6l-0.4-3.1L223.3,317.3z
		 M217.5,314.4l0.6-3l0.4,2.9L217.5,314.4z"/>
	<polygon class="st0" points="113.6,63.2 113.6,79.1 116.4,82.1 123.8,82.1 126.6,79.1 126.6,63.2 121.1,63.2 121.1,76.3 
		120.4,77.1 119.9,77.1 119.2,76.3 119.2,63.2 	"/>
	<polygon class="st0" points="128,82.1 128,63.2 133.6,63.2 138.9,72.6 138.9,63.2 144.4,63.2 144.4,82.1 138.8,82.1 133.6,72.6 
		133.6,82.1 	"/>
	<rect x="145.8" y="63.2" class="st0" width="5.6" height="18.9"/>
	<polygon class="st0" points="152.7,63.2 156.1,82.1 164.5,82.1 167.8,63.2 162.3,63.2 160.3,77.3 158.3,63.2 	"/>
	<polygon class="st0" points="169.3,63.2 169.3,82.1 181.2,82.1 181.2,77.1 174.8,77.2 174.8,74.7 181.2,74.6 181.2,69.7 
		174.8,69.7 174.8,68.1 181.2,68.1 181.2,63.2 	"/>
	<polygon class="st0" points="208.1,70.1 204.2,70.1 203.5,69.4 203.5,68.9 204.2,68.2 210.5,68.2 210.5,63.2 200.8,63.2 198,66.2 
		198,72.1 200.7,75.1 204.7,75.1 205.4,75.8 205.4,76.3 204.7,77.1 198.5,77.1 198.5,82.1 208.2,82.1 210.9,79.1 210.9,73.1 	"/>
	<polygon class="st0" points="228.9,63.2 228.9,82.1 240.9,82.1 240.9,77.2 234.4,77.2 234.4,63.2 	"/>
	<path class="st0" d="M195.6,79.4v-3.9l-2-2.9l2-2.8l0.1-3.7l-2.9-3h-10.1v18.9h5.5v-6.9h1.2l0.8,0.6v3.6l1.5,2.7h4.9L195.6,79.4z
		 M190.1,69.4l-0.7,0.7h-1.2v-2h1.2l0.7,0.7V69.4z"/>
	<path class="st0" d="M224.1,63.2h-8.4l-3.3,18.9h5.4l0.7-4.4h2.7l0.6,4.4h5.5L224.1,63.2z M219.3,72.6l0.7-4.5l0.7,4.5H219.3z"/>
</g>
</svg>
